# xmcd
#
# Track frame offsets:
#	150
#	32919
#	64350
#	92081
#	110253
#	136413
#	162423
#	192694
#	213697
#	234514
#	298456
#
# Disc length: 4297 seconds
#
# Revision: 1
# Processed by: cddbd v1.5.2PL0 Copyright (c) Steve Scherf et al.
# Submitted via: audiograbber 1.82.01
#
DISCID=b310c70b
DTITLE=Pr. Melvin - Testemunho e Louvores
DYEAR=2009
DGENRE=Gospel
TTITLE0=Minha familia é de Jeova
TTITLE1=O Azeite vai descer
TTITLE2=Nicodemos
TTITLE3=Ele é Deus
TTITLE4=O fogo vai pegar
TTITLE5=Eu creio no poder de Jeová
TTITLE6=O varão do movimento
TTITLE7=Me enche ou me mata
TTITLE8=Sunamita
TTITLE9=Testemunho
TTITLE10=Sinta a Shekinah
EXTD=
EXTT0=
EXTT1=
EXTT2=
EXTT3=
EXTT4=
EXTT5=
EXTT6=
EXTT7=
EXTT8=
EXTT9=
EXTT10=
PLAYORDER=
